<?xml version="1.0" encoding="UTF-8"?>
<svg id="Ebene_2" data-name="Ebene 2" xmlns="http://www.w3.org/2000/svg" viewBox="0 0 534.9 573.15">
  <defs>
    <style>
      .cls-1 {
        fill: #b8d590;
      }

      .cls-1, .cls-2, .cls-3, .cls-4 {
        stroke-width: 0px;
      }

      .cls-2 {
        fill: #a7cd79;
      }

      .cls-3 {
        fill: #92c56e;
      }

      .cls-4 {
        fill: #30529c;
      }
    </style>
  </defs>
  <path class="cls-4" d="m513.81,181.9c-.72-1.69-1.46-3.38-2.21-5.05-.29-.64-.58-1.28-.87-1.92-.5-1.09-1.01-2.18-1.52-3.26-.35-.73-.69-1.46-1.04-2.18-.73-1.51-1.47-3-2.23-4.49h0c-30.86-60.62-84.16-107.89-148.95-130.91,28.15-12.73,58.2-21.98,89.63-27.18-.81-2.1-1.79-4.62-2.69-6.9-34.16,5.78-66.71,16.26-97.01,30.71-25.1-7.8-51.79-12-79.47-12C119.74,18.7,0,138.44,0,286.15c0,36.31,7.25,70.93,20.36,102.5h0s0,0,0,0c.57,1.38,1.16,2.75,1.75,4.11.13.3.26.59.39.89.59,1.35,1.2,2.7,1.81,4.04.01.03.03.05.04.08,29.91,65.02,85.13,115.98,153.04,140.27-29.64,13.08-61.37,22.32-94.55,27.05l4.44,8.06c35.98-5.47,70.26-16.11,102.05-31.15,24.71,7.53,50.93,11.6,78.11,11.6,147.71,0,267.45-119.74,267.45-267.45,0-36.99-7.51-72.22-21.08-104.26Zm-120.23,24.48c0,5.84-.14,11.65-.42,17.43l-248.48,114.83c3.16-44.96,14.53-87.65,32.61-126.59,56.65-36.7,124.2-58.01,196.73-58.01,5.31,0,10.6.12,15.86.34,2.44,16.98,3.71,34.35,3.71,52.01Zm4.27-51.57c34.77,2.26,68.2,9.42,99.62,20.8l-96.2,44.46c.15-4.32.25-8.64.25-13,0-17.74-1.25-35.19-3.67-52.26Zm-261.3,187.59l-102.08,47.17c25.72-68.82,71.76-127.73,130.82-169.42-16.14,37.92-26.13,79.09-28.74,122.24Zm-.41,8.33c-.18,4.77-.29,9.55-.29,14.37,0,17.35,1.2,34.41,3.51,51.12-35.14-2.05-68.94-9.08-100.69-20.44l97.47-45.04Zm7.64,13.68c0-5.83.14-11.63.42-17.4l248.48-114.83c-3.1,44.06-14.08,85.93-31.54,124.24-57.4,38.18-126.3,60.43-200.41,60.43-4.42,0-8.83-.1-13.21-.26-2.46-17.04-3.75-34.47-3.75-52.19Zm257.11-136.02l98.88-45.69c-25.15,66.49-69.31,123.63-125.83,164.83,15.21-37.08,24.57-77.17,26.95-119.14Zm98.2-59.92c-32.28-11.58-66.63-18.81-102.36-20.97-4.28-26.47-11.35-52-20.93-76.27l-7.04,3.12c9.08,23.18,15.83,47.53,19.98,72.75-4.89-.19-9.8-.31-14.73-.31-69.74,0-134.97,19.29-190.67,52.81,35.66-69.7,93.22-126.32,163.61-160.8,66.29,21.29,120.98,68.48,152.13,129.68ZM267.45,26.37c24,0,47.23,3.27,69.29,9.36-72.37,37.3-130.86,97.76-165.68,171.57-64.9,42.61-115.6,105.07-143.48,178.74-12.82-30.75-19.92-64.5-19.92-99.9C7.67,142.68,123.98,26.37,267.45,26.37ZM35.81,403.85c33.03,11.84,68.23,19.11,104.85,21.07,4.09,25.16,10.71,49.47,19.6,72.66l7.78-2.56c-8.61-22.27-15.07-45.61-19.15-69.75,3.94.12,7.88.21,11.85.21,70.87,0,137.08-19.92,193.35-54.44-36.14,70.72-94.82,127.99-166.58,162.35-66.1-21.36-120.62-68.47-151.7-129.53Zm231.64,142.08c-23.49,0-46.24-3.14-67.88-8.98,73.64-37.66,133.02-99.24,167.86-174.51,63.15-42.56,112.47-104.07,139.8-176.38,12.87,30.81,20,64.62,20,100.09,0,143.47-116.31,259.78-259.78,259.78Z"/>
  <path class="cls-1" d="m507.23,186.06c-27.33,72.31-76.65,133.82-139.8,176.38-34.84,75.27-94.22,136.85-167.86,174.51,21.64,5.84,44.39,8.98,67.88,8.98,143.47,0,259.78-116.31,259.78-259.78,0-35.48-7.12-69.29-20-100.09ZM336.74,35.74c-22.06-6.09-45.29-9.36-69.29-9.36C123.98,26.37,7.67,142.68,7.67,286.15c0,35.4,7.09,69.14,19.92,99.9,27.88-73.67,78.58-136.13,143.48-178.74,34.82-73.82,93.3-134.27,165.68-171.57Z"/>
  <path class="cls-2" d="m396.74,147.49c35.72,2.16,70.08,9.39,102.36,20.97-31.15-61.19-85.84-108.38-152.13-129.68-70.39,34.48-127.95,91.1-163.61,160.8,55.69-33.52,120.93-52.81,190.67-52.81,4.94,0,9.84.12,14.73.31-4.15-25.22-10.9-49.57-19.98-72.75l7.04-3.12c9.58,24.27,16.64,49.8,20.93,76.27Zm-247.85,277.77c4.08,24.14,10.54,47.48,19.15,69.75l-7.78,2.56c-8.89-23.19-15.51-47.5-19.6-72.66-36.62-1.96-71.82-9.23-104.85-21.07,31.08,61.06,85.6,108.17,151.7,129.53,71.76-34.36,130.44-91.63,166.58-162.35-56.28,34.53-122.49,54.44-193.35,54.44-3.97,0-7.91-.08-11.85-.21Z"/>
  <path class="cls-3" d="m401.27,220.06l96.2-44.46c-31.41-11.38-64.85-18.54-99.62-20.8,2.41,17.07,3.67,34.52,3.67,52.26,0,4.35-.1,8.68-.25,13Zm-.38,8.32c-2.38,41.96-11.74,82.06-26.95,119.14,56.52-41.2,100.68-98.34,125.83-164.83l-98.88,45.69Zm-7.72-4.58c.27-5.77.42-11.58.42-17.43,0-17.66-1.27-35.02-3.71-52.01-5.26-.23-10.54-.34-15.86-.34-72.53,0-140.07,21.31-196.73,58.01-18.08,38.95-29.45,81.63-32.61,126.59l248.48-114.83Zm-248.98,123.2c-.27,5.77-.42,11.57-.42,17.4,0,17.72,1.29,35.15,3.75,52.19,4.39.16,8.79.26,13.21.26,74.11,0,143.01-22.26,200.41-60.43,17.45-38.31,28.44-80.19,31.54-124.24l-248.48,114.83Zm-8.06,3.72l-97.47,45.04c31.75,11.36,65.55,18.39,100.69,20.44-2.31-16.71-3.51-33.78-3.51-51.12,0-4.81.11-9.6.29-14.37Zm29.15-130.58c-59.06,41.69-105.1,100.6-130.82,169.42l102.08-47.17c2.61-43.16,12.6-84.33,28.74-122.24Z"/>
</svg>