<?xml version="1.0" encoding="UTF-8"?>
<svg id="Ebene_2" data-name="Ebene 2" xmlns="http://www.w3.org/2000/svg" viewBox="0 0 996.08 510.34">
  <defs>
    <style>
      .cls-1 {
        fill: #b8d590;
      }

      .cls-1, .cls-2, .cls-3, .cls-4, .cls-5 {
        stroke-width: 0px;
      }

      .cls-2 {
        fill: #a7cd79;
      }

      .cls-3 {
        fill: #92c56e;
      }

      .cls-4 {
        fill: #385b9e;
      }

      .cls-5 {
        fill: #30529c;
      }
    </style>
  </defs>
  <path class="cls-4" d="m587.17,323.02c-5.35-10.15-15.55-17.09-26.24-17.09-3.64,0-10.93.8-18.71,6.41-4.13,3.2-7.05,6.41-9.48,10.95-9.48,16.82-8.75,46.46-8.75,49.13,0,24.03,2.19,35.78,7.53,46.19,6.32,12.28,14.82,17.35,27.46,17.62,6.07,0,11.18-1.6,13.12-2.14,3.4-1.34,7.05-3.47,9.72-5.61,9.96-9.08,11.66-24.56,12.15-28.57.24-2.4.49-4.81.73-6.94l-20.9-.27c-2.43,10.68-2.92,16.55-7.05,19.49-2.67,2.14-6.07,2.4-7.05,2.4-3.89,0-6.32-2.4-7.29-3.2-6.56-7.74-6.8-25.63-6.8-34.18h49.81c-.24-15.75-.49-39.78-8.26-54.2Zm-41.06,34.71c1.21-10.41,2.19-18.69,3.89-22.43,1.94-4.27,6.32-7.74,10.45-8.01,3.64,0,7.53,3.2,9.48,7.21,2.43,4.81,3.4,11.21,3.89,23.23h-27.7Zm162.54-52.87c-8.99,0-13.85,4.54-16.52,6.94-1.94,2.14-3.89,4.27-5.83,6.67v-11.48h-22.84v126.29h22.84v-88.11c.73-7.21,1.46-13.35,7.78-17.09,2.67-1.6,5.1-1.87,6.32-1.87,2.92,0,5.1,1.07,7.29,3.2,4.13,4,3.89,9.08,3.4,14.95v89.18h22.6v-100.39c-.73-8.01-1.46-14.69-6.56-20.03-4.62-5.07-11.91-8.28-18.47-8.28Zm141.89,0c-8.99,0-13.85,4.54-16.52,6.94-1.94,2.14-3.89,4.27-5.83,6.67v-11.48h-22.84v126.29h22.84v-88.11c.73-7.21,1.46-13.35,7.78-17.09,2.67-1.6,5.1-1.87,6.32-1.87,2.92,0,5.1,1.07,7.29,3.2,4.13,4,3.89,9.08,3.4,14.95v89.18h22.6v-100.39c-.73-8.01-1.46-14.69-6.56-20.03-4.62-5.07-11.91-8.28-18.47-8.28Zm138.98,71.82c-2.19-2.94-4.13-4.54-6.8-7.21-8.26-8.28-14.34-14.95-16.77-19.22-2.19-4-2.67-6.94-2.67-8.81,0-3.2,1.21-5.87,1.94-6.94,3.89-6.67,10.45-7.21,12.63-7.21,6.56,0,11.42,4.27,16.76,8.54v-25.63c-9.96-3.47-14.58-4.81-19.68-4.81-12.15,0-24.54,8.81-29.89,21.89-2.92,6.67-3.16,12.82-3.16,15.75,0,12.28,5.1,19.76,7.78,23.23,1.94,2.4,4.13,4.54,6.32,6.67,2.91,3.2,6.07,6.14,8.99,9.35,4.86,5.07,10.45,10.68,10.45,18.96s-7.53,15.75-14.82,15.75c-6.8,0-12.88-4.81-17.98-9.08v25.1c2.67.8,11.91,5.07,21.14,5.07,3.4,0,11.42-.53,19.44-6.94,9.96-7.74,11.66-18.16,12.15-23.23,0-.27.73-5.87.73-9.35,0-11.75-3.64-18.16-6.56-21.89Z"/>
  <g>
    <path class="cls-2" d="m654.27,275.73h44.54v-19.02h-22.04V79.69h22.04v-19.02h-44.54v215.06Zm165.65-214.6v19.26h22.5v176.78h-22.04v19.26h44.08V61.13h-44.54Z"/>
    <path class="cls-5" d="m580.96,119.36c-9.28,0-14.15,4.41-20.42,10.44V58.81h-22.04v171.68h21.58v-7.89c6.03,5.57,11.37,10.21,19.26,10.21,3.94,0,14.85-1.62,21.11-11.6,2.55-4.18,4.64-10.21,6.03-21.11,1.39-12.3,1.62-28.07,1.62-30.86,0-.93.46-24.13-5.57-36.19-3.94-7.89-12.06-13.69-21.58-13.69Zm-.46,91.18c-1.86,2.09-4.87,3.48-7.89,3.48-5.34,0-9.51-4.41-11.14-9.05-1.62-3.94-2.78-15.08-2.55-27.61,0-8.82,1.16-21.34,1.16-22.74,1.86-12.3,8.12-16.47,13.92-16.47,6.5,0,10.67,5.57,12.06,18.56.7,5.8.7,10.9.7,12.99,0,19.49-1.39,35.5-6.26,40.83Zm183.97-78.18v-12.3h-21.81v109.97h21.58v-69.37c.23-4.87.7-6.96,1.39-9.28.93-2.78,2.55-5.57,4.64-7.42,6.73-6.26,15.54-4.41,17.87-3.94l.23-22.97c-12.76,3.25-15.78,5.1-23.9,15.31Zm218.77,86.54c-.23-12.06,0-24.13,0-36.19.23-20.65,0-41.3,0-61.94l-20.88-.23v8.12c-7.19-5.1-12.99-9.28-22.04-9.28-6.03,0-12.53,2.09-16.7,6.26-11.14,10.67-13.46,37.35-13.46,51.74,0,10.9,1.16,21.58,1.86,25.06,1.39,7.89,3.71,14.62,9.28,21.11,5.34,5.8,10.9,8.58,18.79,8.58,2.09,0,10.44-.46,16.7-4.64,2.55-1.62,4.64-3.71,5.34-4.41,0,11.14,0,21.81-.93,25.75-2.32,8.82-10.44,9.28-13.69,9.28-7.66,0-10.67-2.55-12.53-5.57-2.55-3.94-2.55-7.42-2.78-11.83h-20.18c.93,13.69,2.09,23.2,14.85,30.16,3.25,1.62,8.35,3.94,16.94,3.94,4.41,0,9.74-.46,10.9-.46,8.35-1.16,16.01-3.25,21.34-10.21,4.64-6.03,5.57-13.22,6.03-16.01,1.86-15.31,1.39-20.88,1.16-29.23Zm-24.59-10.21c-3.25,4.64-8.35,5.34-10.9,5.57-6.96,0-10.44-4.64-11.83-6.96-2.78-4.64-3.25-9.98-3.48-15.31-.46-6.5-.7-13.22-.46-19.72,0-14.38,1.39-25.75,5.1-29.93,3.02-3.48,8.35-3.94,9.98-3.94,2.09,0,8.82.46,12.3,5.8,3.71,5.8,4.41,19.49,4.41,36.42,0,13.92-1.62,22.97-5.1,28.07Z"/>
  </g>
  <g>
    <path class="cls-5" d="m457.51,161.96c-.64-1.51-1.3-3.01-1.97-4.5-.26-.57-.52-1.14-.78-1.71-.45-.97-.9-1.94-1.35-2.9-.31-.65-.61-1.3-.93-1.94-.65-1.34-1.31-2.67-1.99-4h0c-27.48-53.98-74.93-96.07-132.63-116.56,25.06-11.33,51.82-19.57,79.81-24.2-.72-1.87-1.59-4.12-2.4-6.14-30.41,5.15-59.4,14.47-86.38,27.34-22.35-6.95-46.12-10.69-70.76-10.69C106.62,16.65,0,123.27,0,254.79c0,32.33,6.46,63.15,18.13,91.26h0s0,0,0,0c.51,1.23,1.03,2.45,1.56,3.66.11.26.23.53.35.79.53,1.2,1.06,2.41,1.61,3.6.01.02.02.05.03.07,26.63,57.9,75.8,103.27,136.27,124.9-26.4,11.65-54.64,19.87-84.18,24.09l3.95,7.17c32.04-4.87,62.56-14.35,90.87-27.74,22,6.71,45.35,10.33,69.55,10.33,131.52,0,238.14-106.62,238.14-238.14,0-32.93-6.69-64.3-18.77-92.83Zm-107.05,21.8c0,5.2-.13,10.37-.37,15.52l-221.25,102.25c2.81-40.03,12.94-78.04,29.03-112.72,50.45-32.67,110.59-51.65,175.17-51.65,4.73,0,9.44.1,14.12.31,2.17,15.12,3.3,30.58,3.3,46.31Zm3.8-45.92c30.96,2.01,60.73,8.39,88.7,18.52l-85.66,39.58c.13-3.84.22-7.7.22-11.57,0-15.8-1.12-31.33-3.27-46.53Zm-232.67,167.03l-90.89,42c22.9-61.28,63.9-113.73,116.48-150.85-14.38,33.76-23.27,70.42-25.59,108.85Zm-.37,7.42c-.16,4.25-.26,8.51-.26,12.79,0,15.44,1.07,30.64,3.12,45.52-31.29-1.82-61.38-8.09-89.65-18.2l86.79-40.11Zm6.8,12.18c0-5.19.13-10.36.37-15.49l221.25-102.25c-2.76,39.23-12.54,76.52-28.08,110.63-51.11,33.99-112.46,53.81-178.45,53.81-3.94,0-7.86-.09-11.76-.23-2.19-15.18-3.34-30.69-3.34-46.47Zm228.94-121.12l88.04-40.69c-22.4,59.2-61.71,110.09-112.04,146.77,13.54-33.02,21.88-68.72,24-106.08Zm87.44-53.35c-28.74-10.31-59.33-16.75-91.14-18.68-3.81-23.57-10.11-46.3-18.63-67.91l-6.26,2.77c8.08,20.64,14.09,42.32,17.79,64.78-4.35-.17-8.72-.27-13.12-.27-62.1,0-120.18,17.17-169.77,47.02,31.75-62.06,83-112.48,145.68-143.18,59.03,18.96,107.72,60.98,135.46,115.46ZM238.14,23.48c21.37,0,42.06,2.91,61.7,8.34-64.44,33.21-116.52,87.04-147.52,152.77-57.79,37.94-102.93,93.55-127.76,159.15-11.42-27.38-17.73-57.43-17.73-88.95C6.83,127.05,110.39,23.48,238.14,23.48ZM31.88,359.59c29.41,10.54,60.75,17.02,93.36,18.76,3.64,22.4,9.54,44.05,17.45,64.7l6.93-2.28c-7.66-19.83-13.41-40.61-17.05-62.11,3.51.11,7.02.19,10.55.19,63.1,0,122.05-17.73,172.17-48.48-32.18,62.97-84.43,113.96-148.33,144.56-58.86-19.02-107.4-60.97-135.08-115.33Zm206.25,126.51c-20.91,0-41.17-2.79-60.44-7.99,65.57-33.53,118.44-88.37,149.47-155.39,56.23-37.9,100.14-92.66,124.48-157.05,11.46,27.43,17.8,57.54,17.8,89.12,0,127.75-103.56,231.31-231.31,231.31Z"/>
    <path class="cls-1" d="m451.64,165.67c-24.34,64.39-68.25,119.15-124.48,157.05-31.02,67.02-83.89,121.85-149.47,155.39,19.27,5.2,39.53,7.99,60.44,7.99,127.75,0,231.31-103.56,231.31-231.31,0-31.59-6.34-61.69-17.8-89.12ZM299.84,31.82c-19.64-5.42-40.33-8.34-61.7-8.34C110.39,23.48,6.83,127.05,6.83,254.79c0,31.52,6.32,61.57,17.73,88.95,24.83-65.6,69.97-121.21,127.76-159.15,31-65.73,83.08-119.56,147.52-152.77Z"/>
    <path class="cls-2" d="m353.26,131.33c31.81,1.93,62.4,8.36,91.14,18.68-27.74-54.49-76.43-96.5-135.46-115.46-62.68,30.7-113.93,81.12-145.68,143.18,49.59-29.85,107.68-47.02,169.77-47.02,4.39,0,8.77.1,13.12.27-3.7-22.46-9.71-44.14-17.79-64.78l6.26-2.77c8.53,21.61,14.82,44.35,18.63,67.91Zm-220.69,247.33c3.64,21.5,9.39,42.28,17.05,62.11l-6.93,2.28c-7.91-20.65-13.81-42.29-17.45-64.7-32.6-1.74-63.95-8.22-93.36-18.76,27.68,54.36,76.22,96.32,135.08,115.33,63.89-30.59,116.15-81.59,148.33-144.56-50.11,30.74-109.07,48.48-172.17,48.48-3.53,0-7.05-.08-10.55-.19Z"/>
    <path class="cls-3" d="m357.3,195.94l85.66-39.58c-27.97-10.13-57.74-16.51-88.7-18.52,2.15,15.2,3.27,30.74,3.27,46.53,0,3.87-.09,7.73-.22,11.57Zm-.34,7.41c-2.12,37.37-10.45,73.07-24,106.08,50.33-36.68,89.64-87.57,112.04-146.77l-88.04,40.69Zm-6.87-4.08c.24-5.14.37-10.31.37-15.52,0-15.72-1.13-31.18-3.3-46.31-4.68-.2-9.39-.31-14.12-.31-64.58,0-124.72,18.98-175.17,51.65-16.09,34.68-26.22,72.69-29.03,112.72l221.25-102.25Zm-221.69,109.7c-.24,5.13-.37,10.3-.37,15.49,0,15.78,1.15,31.3,3.34,46.47,3.91.14,7.82.23,11.76.23,65.99,0,127.34-19.82,178.45-53.81,15.54-34.11,25.32-71.4,28.08-110.63l-221.25,102.25Zm-7.17,3.31l-86.79,40.11c28.27,10.11,58.36,16.38,89.65,18.2-2.06-14.88-3.12-30.07-3.12-45.52,0-4.29.1-8.55.26-12.79Zm25.96-116.27c-52.59,37.12-93.58,89.57-116.48,150.85l90.89-42c2.32-38.43,11.21-75.08,25.59-108.85Z"/>
  </g>
</svg>